<svg width="512" height="512" xmlns="http://www.w3.org/2000/svg" class="ionicon">
 <title>Person Circle</title>

 <g>
  <title>Layer 1</title>
  <ellipse ry="205.5" rx="205.5" id="svg_4" cy="256" cx="256" stroke="#000000" fill="#000000"/>
  <path d="m258.9,48c-116.98,-1.58 -212.48,93.92 -210.9,210.9c1.56,112.19 92.91,203.54 205.1,205.1c117,1.6 212.48,-93.9 210.88,-210.88c-1.54,-112.21 -92.89,-203.56 -205.08,-205.12zm126.42,327.25a4,4 0 0 1 -6.14,-0.32a124.27,124.27 0 0 0 -32.35,-29.59c-25.46,-16.34 -57.72,-25.34 -90.83,-25.34s-65.37,9 -90.83,25.34a124.24,124.24 0 0 0 -32.35,29.58a4,4 0 0 1 -6.14,0.32a175.32,175.32 0 0 1 -46.68,-116.24c-1.63,-97.31 78.22,-178.76 175.57,-179s176.43,78.81 176.43,176a175.32,175.32 0 0 1 -46.68,119.25z" id="svg_1" fill="#ffffff"/>
  <path d="m256,144c-19.72,0 -37.55,7.39 -50.22,20.82s-19,32 -17.57,51.93c2.9,39.25 33.31,71.25 67.79,71.25s64.83,-32 67.79,-71.24c1.48,-19.74 -4.8,-38.14 -17.68,-51.82c-12.72,-13.5 -30.52,-20.94 -50.11,-20.94z" id="svg_2" fill="#ffffff"/>
 </g>
</svg>